<svg width="128" height="128" viewBox="0 0 128 128" fill="none" xmlns="http://www.w3.org/2000/svg">
<g clip-path="url(#clip0_1_2)">
<rect width="128" height="128" fill="white"/>
<path d="M53.8281 88.008C51.0121 88.008 48.2921 86.792 45.6681 84.36C45.2841 84.232 44.9641 83.944 44.7081 83.496C44.4521 83.112 44.1961 82.792 43.9401 82.536C43.4921 82.408 43.2041 82.216 43.0761 81.96C42.9481 81.704 42.8201 81.384 42.6921 81C42.6921 80.936 42.6281 80.84 42.5001 80.712C42.4361 80.648 42.3721 80.584 42.3081 80.52C42.2441 80.456 42.1801 80.392 42.1161 80.328C42.0521 80.328 42.0201 80.328 42.0201 80.328C42.0841 80.264 42.1161 80.232 42.1161 80.232C41.8601 79.72 41.7001 79.368 41.6361 79.176C41.5721 78.92 41.3161 78.6 40.8681 78.216C40.7401 78.088 40.6121 77.896 40.4841 77.64C40.4201 77.32 40.3561 77.064 40.2921 76.872C39.5881 75.208 38.9481 73.512 38.3721 71.784C37.8601 69.992 37.6041 68.168 37.6041 66.312C37.6041 65.672 37.7961 65.192 38.1801 64.872C38.5641 64.552 38.9801 64.392 39.4281 64.392C40.2601 64.392 40.8041 64.808 41.0601 65.64C41.1881 65.896 41.3161 66.184 41.4441 66.504C41.6361 66.76 41.7321 67.016 41.7321 67.272V68.232C41.7321 68.616 41.8281 68.712 42.0201 68.52C42.2761 68.264 42.4361 68.296 42.5001 68.616C42.6281 69.064 42.7241 69.352 42.7881 69.48C42.8521 69.544 43.1081 69.704 43.5561 69.96C43.6841 70.216 43.8441 70.472 44.0361 70.728C44.2281 70.984 44.4201 71.24 44.6121 71.496V71.688C44.6121 72.072 44.7401 72.36 44.9961 72.552C45.2521 72.68 45.5401 72.84 45.8601 73.032L47.1081 74.376C47.0441 74.504 47.0121 74.632 47.0121 74.76C47.0121 75.144 47.2041 75.4 47.5881 75.528C48.0361 75.656 48.4201 75.784 48.7401 75.912C48.8041 75.976 49.1561 76.296 49.7961 76.872C50.5001 77.384 50.9801 77.704 51.2361 77.832C51.5561 78.024 51.9081 78.248 52.2921 78.504C52.6761 78.696 53.0601 78.856 53.4441 78.984C53.5721 78.984 53.7001 79.048 53.8281 79.176C54.9801 79.624 56.0361 79.848 56.9961 79.848C57.8921 79.848 58.9161 79.656 60.0681 79.272C60.2601 79.208 60.4201 79.176 60.5481 79.176C60.7401 79.112 60.8681 79.08 60.9321 79.08C61.1241 79.08 61.2201 79.144 61.2201 79.272C61.2201 79.592 60.9321 79.912 60.3561 80.232C60.3561 80.36 60.2601 80.424 60.0681 80.424C59.8121 80.488 59.5561 80.584 59.3001 80.712C59.0441 80.84 58.7881 80.872 58.5321 80.808C58.2121 80.808 57.9561 80.776 57.7641 80.712C57.5721 80.648 57.3161 80.744 56.9961 81C56.1641 80.936 55.2361 80.744 54.2121 80.424C53.1881 80.104 52.3241 79.752 51.6201 79.368C51.5561 78.92 51.2681 78.696 50.7561 78.696C50.2441 78.632 49.8281 78.472 49.5081 78.216C49.2521 77.896 49.0281 77.544 48.8361 77.16C48.7081 76.776 48.3881 76.744 47.8761 77.064C47.6201 76.808 47.3961 76.616 47.2041 76.488C47.0121 76.296 46.7241 76.2 46.3401 76.2C46.2121 76.072 46.0201 75.944 45.7641 75.816C45.5721 75.688 45.5081 75.496 45.5721 75.24C45.3161 75.048 44.8041 74.728 44.0361 74.28C43.3321 73.768 42.9161 73.448 42.7881 73.32C42.4681 72.936 42.1801 72.616 41.9241 72.36C41.6681 72.104 41.3161 71.88 40.8681 71.688L40.5801 71.496C41.4121 73.992 42.4041 76.424 43.5561 78.792C44.7721 81.16 46.5321 83.08 48.8361 84.552C49.9241 85.192 50.9161 85.704 51.8121 86.088C52.7721 86.536 53.7001 86.76 54.5961 86.76C56.2601 86.76 58.0201 85.928 59.8761 84.264C61.4761 82.792 62.9161 81.032 64.1961 78.984C65.4761 76.872 66.6281 74.664 67.6521 72.36C68.6761 70.056 69.5721 67.912 70.3401 65.928C70.4681 65.8 70.5641 65.704 70.6281 65.64C70.6921 65.576 70.7561 65.512 70.8201 65.448C70.9481 65.064 71.0441 64.616 71.1081 64.104C71.2361 63.592 71.3641 63.112 71.4921 62.664L68.3241 63.24C67.4921 63.368 67.0761 63.4 67.0761 63.336C67.0761 63.208 67.1721 63.08 67.3641 62.952C67.5561 62.76 67.4601 62.696 67.0761 62.76H66.6921C66.1801 62.76 65.7001 62.856 65.2521 63.048C64.8041 63.24 64.5801 63.4 64.5801 63.528C64.5801 63.656 64.2921 63.816 63.7161 64.008C63.2041 64.2 62.6601 64.36 62.0841 64.488C61.5081 64.616 61.1881 64.68 61.1241 64.68C60.1001 64.872 59.1401 65.064 58.2441 65.256C57.3481 65.384 56.5481 65.512 55.8441 65.64H55.7481C55.4921 65.64 55.2681 65.448 55.0761 65.064C54.8841 64.68 54.7881 64.264 54.7881 63.816C54.9161 63.048 55.1401 62.504 55.4601 62.184C55.5881 62.056 55.7161 61.992 55.8441 61.992L58.9161 61.512C59.6201 61.384 60.4841 61.288 61.5081 61.224C62.5961 61.16 63.5241 61 64.2921 60.744L69.0921 60.36L72.8361 59.976C72.9001 59.848 72.9321 59.624 72.9321 59.304L73.1241 58.824C73.2521 58.76 73.2201 58.664 73.0281 58.536C72.8361 58.408 72.9641 58.312 73.4121 58.248C73.8601 57.544 74.1161 56.84 74.1801 56.136C74.3081 55.368 74.5001 54.824 74.7561 54.504C74.9481 54.184 75.1401 53.896 75.3321 53.64C75.5241 53.384 75.5561 53.064 75.4281 52.68C75.4921 52.424 75.6841 51.816 76.0041 50.856C76.3881 49.832 76.8041 48.712 77.2521 47.496C77.7001 46.28 78.0841 45.224 78.4041 44.328C78.7241 43.368 78.8841 42.824 78.8841 42.696L79.8441 39.912C78.0521 39.976 76.2281 40.072 74.3721 40.2C72.5161 40.328 70.6921 40.616 68.9001 41.064C68.9641 41 68.9321 40.936 68.8041 40.872C68.6761 40.744 68.5801 40.68 68.5161 40.68L68.4201 40.584C68.1641 40.52 68.1001 40.584 68.2281 40.776C68.4201 40.904 68.3881 41.032 68.1321 41.16C67.5561 41.224 66.8841 41.384 66.1161 41.64C65.4121 41.832 64.7721 41.928 64.1961 41.928C63.9401 41.992 63.6521 42.024 63.3321 42.024C63.0121 41.96 62.6921 41.928 62.3721 41.928C61.4121 41.992 60.4521 42.248 59.4921 42.696C58.5961 43.144 57.6681 43.528 56.7081 43.848L54.9801 44.328C54.2761 44.648 53.5081 44.872 52.6761 45C51.8441 45.128 51.0761 45.352 50.3721 45.672L50.4681 45.768C50.2121 45.96 49.8921 46.088 49.5081 46.152C49.1241 46.216 48.7721 46.312 48.4521 46.44C47.6841 46.696 46.8841 47.016 46.0521 47.4C45.2841 47.72 44.4841 48.008 43.6521 48.264C43.2041 48.392 42.7561 48.52 42.3081 48.648C41.9241 48.712 41.4761 48.84 40.9641 49.032C40.7081 49.096 40.4841 49.16 40.2921 49.224C40.1001 49.224 39.8761 49.224 39.6201 49.224C39.0441 49.224 38.5321 49.096 38.0841 48.84C37.8281 48.712 37.4441 48.36 36.9321 47.784C36.4841 47.144 36.1001 46.504 35.7801 45.864C35.4601 45.16 35.3321 44.648 35.3961 44.328C35.4601 44.136 35.8761 43.912 36.6441 43.656C37.4121 43.336 38.3081 43.048 39.3321 42.792C40.3561 42.472 41.2841 42.216 42.1161 42.024C43.0121 41.768 43.5881 41.608 43.8441 41.544C43.9721 41.48 44.3241 41.416 44.9001 41.352C45.4761 41.224 45.7961 41.288 45.8601 41.544C45.9241 41.672 45.8601 41.864 45.6681 42.12C45.4761 42.312 45.3161 42.472 45.1881 42.6C45.1881 42.664 45.0921 42.792 44.9001 42.984C44.7721 43.176 44.7721 43.24 44.9001 43.176L48.2601 42.312C48.7721 42.184 49.3801 42.152 50.0841 42.216C50.8521 42.216 51.4281 42.088 51.8121 41.832C51.9401 41.704 52.0041 41.576 52.0041 41.448C52.0681 41.32 52.1961 41.256 52.3881 41.256C52.8361 41.128 53.5721 41 54.5961 40.872C55.6841 40.744 56.3561 40.552 56.6121 40.296C57.1241 40.168 57.6681 40.104 58.2441 40.104C58.8201 40.04 59.3321 39.88 59.7801 39.624C59.9721 39.56 60.5801 39.432 61.6041 39.24C62.6921 39.048 63.9081 38.856 65.2521 38.664C66.6601 38.408 67.9081 38.216 68.9961 38.088C70.0841 37.896 70.7241 37.8 70.9161 37.8H71.0121C71.2681 37.8 71.5241 37.768 71.7801 37.704C72.0361 37.64 72.2921 37.608 72.5481 37.608C73.0601 37.608 73.3161 37.832 73.3161 38.28C73.3801 38.344 73.5401 38.376 73.7961 38.376C74.3721 38.376 74.8201 38.216 75.1401 37.896C75.3961 37.832 75.5881 37.736 75.7161 37.608C75.9081 37.48 76.1321 37.384 76.3881 37.32C77.0921 37.192 77.8281 37.16 78.5961 37.224C79.4281 37.224 80.1641 37.224 80.8041 37.224C81.2521 36.264 81.7321 35.624 82.2441 35.304C82.7561 34.92 83.5241 34.728 84.5481 34.728C85.2521 34.728 85.7001 35.08 85.8921 35.784C86.0841 36.424 86.1801 37 86.1801 37.512C86.5001 37.512 86.9161 37.512 87.4281 37.512C87.9401 37.448 88.4841 37.416 89.0601 37.416C89.6361 37.416 90.1801 37.448 90.6921 37.512C91.2681 37.576 91.7161 37.672 92.0361 37.8C92.1001 37.608 92.2601 37.544 92.5161 37.608C92.8361 37.608 93.0601 37.64 93.1881 37.704C93.7001 37.96 94.2441 38.088 94.8201 38.088C95.4601 38.024 96.0681 38.12 96.6441 38.376C97.2201 38.568 97.7641 38.792 98.2761 39.048C98.7881 39.304 99.3321 39.528 99.9081 39.72C100.42 39.848 100.836 40.104 101.156 40.488C101.54 40.808 101.956 41.128 102.404 41.448C102.596 41.576 102.788 41.736 102.98 41.928C103.172 42.056 103.268 42.248 103.268 42.504C103.268 42.504 103.364 42.632 103.556 42.888C103.748 43.144 103.62 43.208 103.172 43.08C103.108 43.08 103.012 43.08 102.884 43.08C102.82 43.016 102.756 43.016 102.692 43.08C102.692 43.208 102.756 43.336 102.884 43.464C103.012 43.528 103.14 43.528 103.268 43.464C103.46 43.4 103.588 43.336 103.652 43.272C103.908 43.272 104.036 43.4 104.036 43.656C104.1 43.912 104.164 44.168 104.228 44.424C104.42 45.192 104.516 45.96 104.516 46.728C104.516 47.56 104.292 48.488 103.844 49.512C103.46 50.536 102.916 51.432 102.212 52.2C101.508 52.904 100.676 53.256 99.7161 53.256C99.3961 53.256 99.1401 53.224 98.9481 53.16C98.2441 52.968 97.8921 52.776 97.8921 52.584C97.8921 52.392 98.2121 52.072 98.8521 51.624C99.3001 51.304 99.6841 50.952 100.004 50.568C100.324 50.12 100.612 49.672 100.868 49.224C101.316 48.904 101.668 48.264 101.924 47.304C102.18 46.344 102.308 45.448 102.308 44.616C102.308 43.976 102.212 43.464 102.02 43.08C101.956 43.08 101.668 42.728 101.156 42.024C100.708 41.32 100.164 40.936 99.5241 40.872C99.2041 40.744 98.8521 40.616 98.4681 40.488C98.1481 40.36 97.8281 40.264 97.5081 40.2C97.2521 39.944 96.7401 39.752 95.9721 39.624C95.2681 39.496 94.5321 39.4 93.7641 39.336C92.9961 39.272 92.4201 39.24 92.0361 39.24C91.7161 39.24 91.1401 39.272 90.3081 39.336C89.4761 39.336 88.6441 39.368 87.8121 39.432C86.9801 39.432 86.4041 39.432 86.0841 39.432C85.5081 41.096 84.5161 42.088 83.1081 42.408C83.0441 42.6 82.7881 43.272 82.3401 44.424C81.8921 45.576 81.4121 46.856 80.9001 48.264C80.3881 49.608 79.9081 50.824 79.4601 51.912C79.0761 52.936 78.8521 53.512 78.7881 53.64C78.5961 53.896 78.4041 54.152 78.2121 54.408C78.0201 54.664 77.8921 54.952 77.8281 55.272C77.6361 56.424 77.0601 57.992 76.1001 59.976C76.1641 59.976 76.1961 60.008 76.1961 60.072C76.1961 60.072 76.3241 60.072 76.5801 60.072C77.0921 60.072 77.4121 60.04 77.5401 59.976C77.7321 59.848 78.0841 59.752 78.5961 59.688C79.3001 59.624 80.1641 59.592 81.1881 59.592C82.2761 59.592 83.1401 59.624 83.7801 59.688C84.1001 59.688 84.5481 59.688 85.1241 59.688C85.7641 59.688 86.2121 59.752 86.4681 59.88C86.5961 59.944 86.6281 60.008 86.5641 60.072C86.5001 60.136 86.5641 60.168 86.7561 60.168H86.9481C87.0761 60.168 87.2041 60.168 87.3321 60.168C87.4601 60.104 87.6201 60.04 87.8121 59.976L88.6761 60.072C89.3161 60.2 89.8281 60.328 90.2121 60.456C90.7881 60.52 91.0761 60.808 91.0761 61.32C91.0761 61.704 90.7881 61.8 90.2121 61.608C90.0841 61.608 89.9241 61.576 89.7321 61.512C89.6041 61.448 89.4441 61.384 89.2521 61.32H88.8681C88.1641 61.32 87.1081 61.288 85.7001 61.224C84.2921 61.16 83.0441 61.16 81.9561 61.224C81.7641 61.224 81.6681 61.16 81.6681 61.032C81.7321 60.84 81.7001 60.744 81.5721 60.744C81.5081 60.68 81.3481 60.744 81.0921 60.936C80.9001 61.064 80.7721 61.16 80.7081 61.224C80.5161 61.224 80.3561 61.256 80.2281 61.32C80.1641 61.384 80.0361 61.416 79.8441 61.416L75.1401 61.992L74.1801 64.104C73.7961 64.36 73.4761 64.584 73.2201 64.776C72.9641 64.904 73.0281 65.192 73.4121 65.64C73.2201 66.088 73.0281 66.312 72.8361 66.312C72.6441 66.248 72.3881 66.184 72.0681 66.12C72.1321 66.44 72.2281 66.664 72.3561 66.792C72.4841 66.856 72.5801 67.048 72.6441 67.368C72.1321 68.52 71.4921 69.928 70.7241 71.592C69.9561 73.192 69.1881 74.472 68.4201 75.432C67.9721 75.624 67.6201 75.816 67.3641 76.008C67.1081 76.2 67.1081 76.584 67.3641 77.16C67.2361 77.288 67.1401 77.448 67.0761 77.64C67.0121 77.832 66.9481 78.024 66.8841 78.216L66.1161 79.368C65.8601 79.56 65.6041 79.784 65.3481 80.04C65.0921 80.232 64.9641 80.552 64.9641 81C64.7081 81.384 64.4841 81.672 64.2921 81.864C63.9081 81.992 63.5881 82.152 63.3321 82.344C63.0761 82.536 62.9481 82.888 62.9481 83.4C61.6681 84.808 60.2281 85.928 58.6281 86.76C57.0921 87.592 55.4921 88.008 53.8281 88.008Z" fill="#7E4B4B"/>
</g>
<defs>
<clipPath id="clip0_1_2">
<rect width="128" height="128" fill="white"/>
</clipPath>
</defs>
</svg>
